<?xml version="1.0" encoding="UTF-8"?>
<svg width="100px" height="30px" viewBox="0 0 100 30" version="1.1" xmlns="http://www.w3.org/2000/svg" xmlns:xlink="http://www.w3.org/1999/xlink">
    <!-- Generator: Sketch 48.2 (47327) - http://www.bohemiancoding.com/sketch -->
    <title>brands/amazon</title>
    <desc>Created with Sketch.</desc>
    <defs></defs>
    <g id="Symbols" stroke="none" stroke-width="1" fill="none" fill-rule="evenodd">
        <g id="brands/amazon" fill="#FFFFFF">
            <path d="M59.295291,21.9868387 C54.7723037,25.2594533 48.2147546,27 42.5683353,27 C34.6542983,27 27.5282287,24.1323343 22.1349388,19.3580061 C21.7116956,18.9834116 22.0896885,18.4707209 22.598329,18.7612568 C28.4165633,22.0805707 35.6116991,24.0792973 43.0432932,24.0792973 C48.0565487,24.0792973 53.5672171,23.05992 58.6376308,20.9511166 C59.4024627,20.6328948 60.0434518,21.4454613 59.295291,21.9868387 Z M61.1774988,19.8805704 C60.5991117,19.1540639 57.3533392,19.536664 55.8954634,19.7071161 C55.4538478,19.7588188 55.3854621,19.3815558 55.7835285,19.1073647 C58.3723212,17.3241216 62.6146207,17.8394809 63.1076107,18.4355631 C63.6046834,19.0383166 62.9776437,23.2078898 60.5511396,25.1979438 C60.1779098,25.5041572 59.8230522,25.34071 59.9884029,24.9367617 C60.5337879,23.5998297 61.7565664,20.6070768 61.1774988,19.8805704 Z M55.9980081,6.51218458 L55.9980081,4.77997706 C55.999369,4.51646003 56.2021447,4.34033725 56.4457477,4.34067082 L64.3655686,4.34000368 C64.6190383,4.34033725 64.8221542,4.52079638 64.8224945,4.77797566 L64.8221542,6.26367801 C64.8201129,6.51285171 64.6061096,6.83807843 64.2260753,7.35410482 L60.1236094,13.0964411 C61.6464687,13.0614167 63.2571067,13.2849059 64.6404726,14.0474374 C64.9528017,14.2188903 65.0364977,14.4740682 65.0609941,14.7235754 L65.0609941,16.5721974 C65.0609941,16.8263746 64.776904,17.1215804 64.478184,16.9684737 C62.0404524,15.7162674 58.8055672,15.5795054 56.1102832,16.9834841 C55.8346988,17.127251 55.5465259,16.8367152 55.5465259,16.5818708 L55.5465259,14.8246459 C55.5465259,14.5437834 55.5516293,14.0627814 55.8411631,13.6341493 L60.5938041,6.94915586 L56.4559546,6.94848873 C56.2028251,6.94848873 56.0000494,6.77136526 55.9980081,6.51218458 Z M27.1092042,17.3325608 L24.6997115,17.3325608 C24.4707382,17.3175504 24.2873555,17.148766 24.268643,16.9332825 L24.2703441,4.80949764 C24.2703441,4.56666169 24.4785635,4.37285992 24.7354354,4.37285992 L26.9792372,4.37219279 C27.2139943,4.38420116 27.4024805,4.55832254 27.4174505,4.77947671 L27.4174505,6.36224673 L27.4623606,6.36224673 C28.047212,4.83151298 29.1492096,4.11734847 30.6336232,4.11734847 C32.1404918,4.11734847 33.0849639,4.83151298 33.7599757,6.36224673 C34.3444869,4.83151298 35.671375,4.11734847 37.0884235,4.11734847 C38.100601,4.11734847 39.2025986,4.52529952 39.8769299,5.44393991 C40.6417618,6.46431788 40.4845766,7.94401605 40.4845766,9.24525648 L40.4828755,16.8959231 C40.4828755,17.1377584 40.2743159,17.3325608 40.0177842,17.3325608 L37.6113535,17.3325608 C37.3697918,17.3168832 37.1789241,17.1294192 37.1789241,16.8965902 L37.1782436,10.4697768 C37.1782436,9.95942099 37.2234939,8.68386513 37.1108785,8.19919393 C36.9308981,7.38295827 36.3912969,7.15313139 35.6941703,7.15313139 C35.1093188,7.15313139 34.5020124,7.536065 34.2543266,8.14815835 C34.006981,8.76058528 34.0297763,9.78062969 34.0297763,10.4697768 L34.0297763,16.8959231 C34.0297763,17.1377584 33.8215569,17.3325608 33.5650252,17.3325608 L31.1582543,17.3325608 C30.9166926,17.3168832 30.7258249,17.1294192 30.7258249,16.8965902 L30.7237835,10.4697768 C30.7237835,9.11783432 30.9483338,7.12778038 29.23937,7.12778038 C27.5072706,7.12778038 27.574976,9.06679874 27.574976,10.4697768 L27.5739553,16.8959231 C27.5742955,17.1377584 27.3657359,17.3325608 27.1092042,17.3325608 Z M71.6401477,4.11728176 C75.215941,4.11728176 77.1497954,7.12771367 77.1497954,10.9543812 C77.1497954,14.6536267 75.0138457,17.5880056 71.6401477,17.5880056 C68.1317194,17.5880056 66.2196396,14.5772401 66.2196396,10.8266255 C66.2196396,7.05132708 68.1538342,4.11728176 71.6401477,4.11728176 Z M71.6622625,6.59200689 C69.8855933,6.59200689 69.7733181,8.96432731 69.7733181,10.444359 C69.7733181,11.9237236 69.7508631,15.0875958 71.6401477,15.0875958 C73.5069772,15.0875958 73.5967973,12.5361506 73.5967973,10.9800658 C73.5967973,9.95968784 73.551547,8.73483399 73.2368364,7.7654916 C72.9666955,6.92357136 72.4267541,6.59200689 71.6622625,6.59200689 Z M81.7873714,17.3325608 L79.3870648,17.3325608 C79.1455031,17.3168832 78.9546354,17.1294192 78.9546354,16.8965902 L78.9508929,4.76846903 C78.9713065,4.5469813 79.1710202,4.37285992 79.4136026,4.37285992 L81.6488987,4.37219279 C81.8591594,4.3828669 82.0326756,4.52396526 82.0769052,4.7120964 L82.0769052,6.56638903 L82.1221555,6.56638903 C82.7971673,4.90823313 83.7412992,4.11734847 85.405353,4.11734847 C86.4848955,4.11734847 87.5423233,4.49994851 88.2166546,5.54601106 C88.8470966,6.51535346 88.8470966,8.14815835 88.8470966,9.32164306 L88.8470966,16.9506279 C88.8198784,17.1657779 88.6232268,17.3325608 88.3854076,17.3325608 L85.9697908,17.3325608 C85.7466014,17.3182175 85.5666209,17.1574387 85.5404234,16.9506279 L85.5404234,10.3677056 C85.5404234,9.04111417 85.698289,7.10209581 84.033895,7.10209581 C83.4487034,7.10209581 82.9091022,7.48502942 82.6396418,8.07143821 C82.3021359,8.81128729 82.2568856,9.55113637 82.2568856,10.3677056 L82.2568856,16.8959231 C82.2524627,17.1377584 82.0445836,17.3325608 81.7873714,17.3325608 Z M52.1139684,17.3019395 C51.9540614,17.4420371 51.7244077,17.4517105 51.5444272,17.3573114 C50.7445518,16.7048566 50.6009757,16.4036466 50.1637831,15.782547 C48.8409777,17.1038013 47.9043308,17.5000776 46.1912842,17.5000776 C44.1628466,17.5000776 42.5848704,16.2725552 42.5848704,13.8185112 C42.5848704,11.9005075 43.6439993,10.5965985 45.1542701,9.95715274 C46.4617653,9.3947607 48.2874272,9.29268954 49.6847425,9.13924924 L49.6847425,8.83236865 C49.6847425,8.26997661 49.7296525,7.60517984 49.3918064,7.11950795 C49.0988703,6.68453806 48.535113,6.50574676 48.039061,6.50574676 C47.1204461,6.50574676 46.3035594,6.96740191 46.102825,7.92440237 C46.060977,8.13688383 45.9027711,8.34736389 45.6843449,8.35837156 L43.3490218,8.11053212 C43.1516898,8.066835 42.9325831,7.91206044 42.9894011,7.61685465 C43.5262805,4.83925171 46.0844527,4 48.3775876,4 C49.5496721,4 51.0823979,4.30688059 52.0064564,5.17615323 C53.1785409,6.24990174 53.0655853,7.68189999 53.0655853,9.24165396 L53.0655853,12.9218861 C53.0655853,14.0286577 53.5347594,14.5143296 53.9753543,15.1110789 C54.128797,15.3258953 54.1635002,15.5814067 53.9671888,15.7385163 C53.4748793,16.1427981 52.600494,16.8876507 52.119412,17.3072765 L52.1139684,17.3019395 Z M49.6847425,11.5425913 L49.6847425,11.0312348 C47.9414156,11.0312348 46.1007837,11.3974901 46.1007837,13.4092259 C46.1007837,14.4316052 46.6417457,15.1220866 47.5661444,15.1220866 C48.2421769,15.1220866 48.8505041,14.7134684 49.2339407,14.048338 C49.7071975,13.230101 49.6847425,12.4632331 49.6847425,11.5425913 Z M20.5287578,17.3019395 C20.369191,17.4420371 20.139197,17.4517105 19.9595568,17.3573114 C19.1593412,16.7048566 19.0157651,16.4036466 18.5785725,15.782547 C17.2557671,17.1038013 16.31878,17.5000776 14.6060736,17.5000776 C12.5772957,17.5000776 11,16.2725552 11,13.8185112 C11,11.9005075 12.0591289,10.5965985 13.5690595,9.95715274 C14.8765547,9.3947607 16.7022166,9.29268954 18.0995319,9.13924924 L18.0995319,8.83236865 C18.0995319,8.26997661 18.1447821,7.60517984 17.806936,7.11950795 C17.5136597,6.68453806 16.9499024,6.50574676 16.4541906,6.50574676 C15.5355758,6.50574676 14.7183488,6.96740191 14.5176144,7.92440237 C14.4757664,8.13688383 14.3179007,8.34736389 14.0991343,8.35837156 L11.7638112,8.11053212 C11.5668194,8.066835 11.3473725,7.91206044 11.4045308,7.61685465 C11.9410699,4.83925171 14.4995823,4 16.792377,4 C17.9644615,4 19.4968471,4.30688059 20.4212458,5.17615323 C21.5929901,6.24990174 21.4803747,7.68189999 21.4803747,9.24165396 L21.4803747,12.9218861 C21.4803747,14.0286577 21.9495488,14.5143296 22.3901436,15.1110789 C22.5435864,15.3258953 22.5782896,15.5814067 22.3819782,15.7385163 C21.8900089,16.1427981 21.0152834,16.8876507 20.5345417,17.3072765 L20.5287578,17.3019395 Z M18.0995319,11.5425913 L18.0995319,11.0312348 C16.3565452,11.0312348 14.5159133,11.3974901 14.5159133,13.4092259 C14.5159133,14.4316052 15.0568753,15.1220866 15.9809338,15.1220866 C16.6573065,15.1220866 17.2656337,14.7134684 17.6487301,14.048338 C18.1223271,13.230101 18.0995319,12.4632331 18.0995319,11.5425913 Z" id="amazon"></path>
        </g>
    </g>
</svg>