<svg xmlns="http://www.w3.org/2000/svg" width="38" height="15" viewBox="0 0 38 15">
    <path fill="#849BC9" fill-rule="nonzero" d="M2.53 5.886c0-.38.378-.57.884-.57.759 0 1.77.254 2.53.697V3.608C5.12 3.29 4.235 3.1 3.413 3.1 1.391 3.101 0 4.177 0 6.013 0 8.797 3.794 8.29 3.794 9.557c0 .443-.38.633-.949.633-.822 0-1.897-.38-2.719-.823v2.405c.949.38 1.834.57 2.72.57 2.086 0 3.477-1.013 3.477-2.848.063-3.038-3.794-2.469-3.794-3.608zm15.743 6.266h2.529v-8.86h-2.53v8.86zm-8.6-10.95l-2.465.507v7.975c0 1.519 1.138 2.595 2.592 2.595.822 0 1.455-.127 1.77-.317V9.937c-.315.126-1.896.57-1.896-.886V5.443h1.897V3.291H9.674V1.203zm5.312 2.849l-.063-.76h-2.276v8.86h2.529V6.14c.632-.76 1.707-.633 2.023-.506V3.29c-.316-.126-1.58-.316-2.213.76zm3.288-1.456l2.529-.506V0l-2.53.506v2.089zM38 7.722c0-2.595-1.265-4.62-3.667-4.62-2.403 0-3.857 2.025-3.857 4.62 0 3.037 1.707 4.557 4.173 4.557 1.201 0 2.086-.254 2.782-.697V9.62c-.696.38-1.454.57-2.466.57-1.012 0-1.834-.38-1.96-1.582h4.932C38 8.48 38 7.975 38 7.722zm-4.995-.95c0-1.14.695-1.582 1.328-1.582.632 0 1.264.443 1.264 1.582h-2.592zm-6.639-3.67c-1.012 0-1.58.442-1.96.822l-.063-.633h-2.276V15l2.529-.443v-2.848c.379.253.885.633 1.77.633 1.834 0 3.478-1.456 3.478-4.684-.064-2.911-1.708-4.557-3.478-4.557zm-.632 6.961c-.57 0-.949-.19-1.202-.506V5.823c.253-.317.633-.507 1.202-.507.948 0 1.58 1.013 1.58 2.342 0 1.393-.632 2.405-1.58 2.405z"/>
</svg>
