<svg xmlns="http://www.w3.org/2000/svg" width="50" height="14" viewBox="0 0 50 14">
    <path fill="#656FF5" fill-rule="nonzero" d="M33.938 0h-3.85a.535.535 0 0 0-.528.452l-1.556 9.88c-.03.194.12.37.317.37h1.975c.183 0 .34-.134.369-.316l.442-2.8a.534.534 0 0 1 .528-.453h1.218c2.536 0 3.998-1.227 4.38-3.662.173-1.064.009-1.901-.49-2.487C36.196.34 35.225 0 33.938 0zm.444 3.608c-.21 1.383-1.265 1.383-2.286 1.383h-.581l.407-2.582a.32.32 0 0 1 .317-.271h.266c.695 0 1.351 0 1.69.396.202.237.264.588.187 1.074zM6.486 0c1.287 0 2.258.34 2.806.984.497.586.662 1.423.49 2.487-.383 2.435-1.846 3.662-4.38 3.662H4.182a.535.535 0 0 0-.528.452l-.42 2.665a.535.535 0 0 1-.528.452H.869a.321.321 0 0 1-.317-.37L2.108.451A.535.535 0 0 1 2.638 0h3.848zm.444 3.608c.076-.486.015-.837-.187-1.074-.338-.396-.995-.396-1.69-.396h-.265a.321.321 0 0 0-.318.271l-.407 2.582h.581c1.02 0 2.076 0 2.286-1.383zm11.06-.044a.32.32 0 0 1 .317.371l-.996 6.316a.536.536 0 0 1-.529.45h-1.66a.321.321 0 0 1-.316-.37l.082-.513s-.91 1.055-2.551 1.055c-.957 0-1.76-.276-2.322-.938-.612-.721-.862-1.754-.686-2.835.339-2.166 2.078-3.71 4.114-3.71.888 0 1.778.193 2.177.773l.13.187.08-.515a.32.32 0 0 1 .317-.271h1.842zm-2.569 3.59c.081-.51-.03-.973-.312-1.304-.28-.33-.705-.503-1.229-.503-1.05 0-1.9.73-2.066 1.775-.086.513.016.973.29 1.296.274.325.702.498 1.237.498 1.066 0 1.902-.707 2.08-1.762zm30.021-3.59a.32.32 0 0 1 .317.371l-.996 6.316a.535.535 0 0 1-.528.45h-1.66a.321.321 0 0 1-.316-.37l.082-.513s-.91 1.055-2.552 1.055c-.956 0-1.759-.276-2.321-.938-.612-.721-.862-1.754-.686-2.835.338-2.166 2.078-3.71 4.115-3.71.888 0 1.777.193 2.176.773l.129.187.081-.515a.32.32 0 0 1 .317-.271h1.842zm-2.568 3.59c.08-.51-.03-.973-.313-1.304-.28-.33-.705-.503-1.228-.503-1.05 0-1.9.73-2.066 1.775-.087.513.017.973.288 1.296.276.325.704.498 1.239.498 1.066 0 1.902-.707 2.08-1.762zm-15.068-3.59c.259 0 .41.29.264.504l-6.161 8.9a.536.536 0 0 1-.44.23h-1.85a.321.321 0 0 1-.263-.507l1.918-2.71-2.04-5.993a.322.322 0 0 1 .304-.424h1.821c.236 0 .445.155.513.382l1.083 3.62 2.555-3.768a.536.536 0 0 1 .443-.234h1.853zM47.615.27A.322.322 0 0 1 47.93 0h1.779c.196 0 .347.177.316.371l-1.557 9.88a.535.535 0 0 1-.528.45h-1.59a.32.32 0 0 1-.316-.37L47.615.27z"/>
</svg>
