<?xml version="1.0" encoding="UTF-8"?>
<svg width="100px" height="30px" viewBox="0 0 100 30" version="1.1" xmlns="http://www.w3.org/2000/svg" xmlns:xlink="http://www.w3.org/1999/xlink">
    <!-- Generator: Sketch 48.2 (47327) - http://www.bohemiancoding.com/sketch -->
    <title>brands/ebay</title>
    <desc>Created with Sketch.</desc>
    <defs></defs>
    <g id="Symbols" stroke="none" stroke-width="1" fill="none" fill-rule="evenodd">
        <g id="brands/ebay" fill="#FFFFFF">
            <path d="M50.3475794,17.4937788 C49.3485985,20.6190331 46.586076,22.2788169 43.2606095,22.2788169 C39.1266702,22.2788169 37.7116912,19.9329278 37.7116912,19.9329278 L37.5820347,21.7965273 L34.5492193,21.7965273 C34.6673933,20.5195808 34.6860524,18.5872893 34.6860524,18.5872893 L34.633185,2 L37.7554683,2 L37.7554683,9.84847287 C37.7554683,9.84847287 39.4311957,7.50258378 43.325677,7.52451699 C47.2208761,7.54645019 50.8328401,10.1991632 50.7462429,14.9564999 C50.739213,15.3395069 50.7115898,15.7083055 50.6645775,16.0627009 C51.9169289,13.3781471 56.7971224,13.2259604 58.2851095,13.2184874 C59.1907917,13.213908 61.9040108,13.2061952 61.9040108,13.2061952 C61.9205169,11.2823396 61.3437605,9.71785112 58.1779394,9.65759505 C54.8327043,9.59372362 54.576501,11.8084955 54.576501,11.8084955 L51.2798273,11.8084955 C51.9491614,6.97451303 58.3951501,7.5664686 58.3951501,7.5664686 C65.1191109,7.84581572 64.9717522,11.6277273 65.053565,13.194626 C65.1236561,14.546049 65.0614592,16.4619508 65.053565,18.6075488 C65.0449531,20.7533877 65.1191109,21.8382379 65.1191109,21.8382379 L62.2468113,21.8546276 L62.1159586,19.9146233 C60.8918763,21.4767015 59.2438982,22.3480042 56.3553317,22.3643939 C53.6055707,22.3802267 50.1277398,21.2026512 50.3475794,17.4937788 Z M63.494689,8.02560642 L67.1174178,8.02560642 L72.4156349,18.6694786 L77.7250952,8.02560642 L81,8.02560642 L71.4145044,27 L67.9118633,27 L70.6860833,21.7273534 L63.494689,8.02560642 Z M56.8938132,20.358349 C62.5080382,20.4325844 61.93487,15.3125062 61.93487,15.3125062 L58.3951501,15.3161215 C58.3951501,15.3161215 53.3851916,15.1543943 53.5806334,17.8427788 C53.7643534,20.3622054 56.8938132,20.358349 56.8938132,20.358349 Z M42.6106522,20.1580444 C47.5294683,20.0953781 47.44933,15.0112124 47.44933,15.0112124 C47.44933,15.0112124 47.612238,9.51947476 42.602758,9.651074 C37.5925603,9.78267325 37.7717351,14.9017874 37.7717351,14.9017874 C37.7717351,14.9017874 37.6918361,20.2202287 42.6106522,20.1580444 Z M27.0100929,7.54355816 C35.5841716,7.54524533 34.6366261,15.7538084 34.6366261,15.7538084 L22.1525168,15.7538084 C22.1525168,15.7538084 22.3276249,20.1525011 26.8337887,20.2371006 C30.3393004,20.3026592 30.9703594,17.8475862 30.9703594,17.8475862 L34.211056,17.8408375 C34.211056,17.8408375 33.8639495,22.297617 26.8206317,22.297617 C18.6233225,22.297617 19.0027234,15.1948732 19.0027234,15.1948732 C18.9630131,13.6176105 19.2639503,7.54211202 27.0100929,7.54355816 Z M22.256577,13.5997747 L31.3727254,13.5997747 C31.3727254,13.5997747 31.3727254,9.61950008 26.9337821,9.62070521 C22.4780935,9.62191033 22.256577,13.5997747 22.256577,13.5997747 Z" id="ebay"></path>
        </g>
    </g>
</svg>