<?xml version="1.0" encoding="UTF-8"?>
<svg width="50px" height="50px" viewBox="0 0 50 50" version="1.1" xmlns="http://www.w3.org/2000/svg" xmlns:xlink="http://www.w3.org/1999/xlink">
    <!-- Generator: Sketch 48.2 (47327) - http://www.bohemiancoding.com/sketch -->
    <title>ill/email</title>
    <desc>Created with Sketch.</desc>
    <defs></defs>
    <g id="Symbols" stroke="none" stroke-width="1" fill="none" fill-rule="evenodd">
        <g id="ill/email">
            <path d="M4.98411451,24.3291662 L22.5397137,34.2518962 C24.0664084,35.1148106 25.9335916,35.1148106 27.4602863,34.2518962 L45.0158855,24.3291662 C45.9774826,23.7856548 47.1976142,24.1245802 47.7411257,25.0861774 C47.910822,25.3864094 48,25.7254207 48,26.0702919 L48,46 C48,48.209139 46.209139,50 44,50 L6,50 C3.790861,50 2,48.209139 2,46 L2,26.0702919 C2,24.9657224 2.8954305,24.0702919 4,24.0702919 C4.34487118,24.0702919 4.68388248,24.1594698 4.98411451,24.3291662 Z" id="Rectangle-6" fill="#FFFFFF"></path>
            <path d="M12,1 L38,1 C40.209139,1 42,2.790861 42,5 L42,17.5916743 C42,19.0733134 41.1810055,20.4335853 39.8715509,21.126826 L27.3394386,27.7614737 C25.8760272,28.5362209 24.1239728,28.5362209 22.6605614,27.7614737 L10.1284491,21.126826 C8.81899445,20.4335853 8,19.0733134 8,17.5916743 L8,5 C8,2.790861 9.790861,1 12,1 Z" id="Rectangle-7" fill="#FFFFFF"></path>
            <path d="M27,7 L27,10 L35,10 L35,7 L27,7 Z M24,7 L15,7 L15,10 L24,10 L24,7 Z M27,16 L35,16 L35,13 L27,13 L27,16 Z M24,16 L24,13 L15,13 L15,16 L24,16 Z M14,4 L36,4 C37.1045695,4 38,4.8954305 38,6 L38,17 C38,18.1045695 37.1045695,19 36,19 L14,19 C12.8954305,19 12,18.1045695 12,17 L12,6 C12,4.8954305 12.8954305,4 14,4 Z" id="Combined-Shape" fill="#A9C4F9" fill-rule="nonzero"></path>
        </g>
    </g>
</svg>