<?xml version="1.0" encoding="UTF-8"?>
<svg width="100px" height="30px" viewBox="0 0 100 30" version="1.1" xmlns="http://www.w3.org/2000/svg" xmlns:xlink="http://www.w3.org/1999/xlink">
    <!-- Generator: Sketch 48.2 (47327) - http://www.bohemiancoding.com/sketch -->
    <title>brands/etsy</title>
    <desc>Created with Sketch.</desc>
    <defs></defs>
    <g id="Symbols" stroke="none" stroke-width="1" fill="none" fill-rule="evenodd">
        <g id="brands/etsy" fill="#FFFFFF" fill-rule="nonzero">
            <path d="M28.6839143,12.0288014 L28.6839143,4.96264094 C28.6839143,4.70081037 28.7101766,4.54377422 29.1577302,4.54377422 L35.1832109,4.54377422 C36.2358918,4.54377422 36.8147569,5.4337494 37.2358918,7.10859439 L37.5779272,8.44355716 L38.6040331,8.44355716 C38.7880256,4.6488796 38.9457558,3 38.9457558,3 C38.9457558,3 36.3672034,3.28779596 34.8410192,3.28779596 L27.1317805,3.28779596 L23,3.15688067 L23,4.25613374 L24.3948726,4.51780883 C25.368454,4.70112133 25.6048148,4.91024373 25.6843833,5.8003744 C25.6843833,5.8003744 25.7634829,8.4174363 25.7634829,12.7359305 C25.7634829,17.0538028 25.6843833,19.6450548 25.6843833,19.6450548 C25.6843833,20.43008 25.368454,20.717876 24.3948726,20.9016549 L23,21.1634855 L23,22.2621167 L27.1317805,22.1315123 L34.0257933,22.1315123 C35.5782398,22.1315123 39.1830546,22.2621167 39.1830546,22.2621167 C39.2616852,21.3197443 39.7883383,17.0538028 39.8672815,16.5833162 L38.8937002,16.5833162 L37.8674379,18.9125822 C37.0515867,20.7441523 35.8677505,20.8752231 34.5518212,20.8752231 L30.6309207,20.8752231 C29.3151477,20.8752231 28.6836017,20.3517174 28.6836017,19.226499 L28.6836017,13.2592807 C28.6836017,13.2592807 31.5516648,13.2592807 32.5513522,13.3379542 C33.2882601,13.3905069 33.7353447,13.5997848 33.9724871,14.6203643 L34.2884164,15.9812925 L35.419259,15.9812925 L35.3406284,12.5524625 L35.4983586,9.0981336 L34.3672034,9.0981336 L33.9990621,10.6159424 C33.7619196,11.6104011 33.6043458,11.7940245 32.5779272,11.8983525 C31.4203533,12.0295788 28.6834454,12.0033024 28.6834454,12.0033024 L28.6834454,12.0292678 L28.6839143,12.0292678 L28.6839143,12.0288014 Z M44.2874785,5.69557998 C43.9190245,7.31818323 43.5505706,8.57431697 42.2612162,9.41189494 C41.47194,9.93508965 40.6823511,10.1180912 40.3670471,10.1443675 L40.3670471,11.1388262 L42.7087697,11.1388262 L42.7087697,19.1733244 C42.7087697,21.4243832 44.2088479,22.5237918 46.2083789,22.5237918 C47.7609817,22.5237918 49.3657965,21.8695263 49.9185556,20.5082872 L49.3657965,19.8016245 C49.1025481,20.2467675 48.2610599,20.9008775 47.2083789,20.9008775 C46.0508051,20.9008775 45.419259,20.1155413 45.419259,18.126935 L45.419259,11.0346537 L49.3138971,11.3227606 L49.5241519,9.54265475 L45.4194154,9.69984638 L45.4194154,5.72154536 L44.2874785,5.69557998 Z M52.6026262,18.0538587 L51.6027826,18.0799796 C51.6553072,18.6555715 51.6818821,19.388666 51.6818821,20.0690524 C51.6818821,20.7757151 51.6556198,21.4299805 51.6027826,21.7438974 C51.6027826,21.7438974 53.6026262,22.476059 55.6287322,22.476059 C58.3653275,22.476059 60.5494763,21.167528 60.5494763,18.6027079 C60.5494763,14.206473 53.9185556,14.860894 53.9185556,11.903017 C53.9185556,10.6731596 55.0236048,10.2018956 56.2340159,10.2018956 C57.181335,10.2018956 57.9706112,10.5420888 58.1284977,11.0397846 L58.7864624,13.002581 L59.7602001,12.9503393 C59.8392997,11.9033279 59.891668,10.6994359 60.0497108,9.73125361 C59.207441,9.3647841 57.4442708,9.15503977 56.3400031,9.15503977 C53.7606691,9.15503977 51.6823511,10.2805692 51.6823511,12.7931476 C51.6823511,17.1635726 58.1550727,16.2737529 58.1550727,19.493305 C58.1550727,20.6443333 57.4442708,21.4557904 55.8396123,21.4557904 C54.3664218,21.4557904 53.6293575,20.6970415 53.3404721,19.9376706 L52.6026262,18.0538587 Z M68.4620916,21.0773489 C66.9387213,25.3097064 65.0739409,26.4061608 63.393153,26.4061608 C62.6836017,26.4061608 62.3425043,26.0923995 62.2369861,25.5968804 L61.8430514,23.5586755 L60.7397217,23.6109173 C60.5296233,24.812788 60.3195248,26.1455741 60.030952,27.2424949 C60.6876661,27.7381694 61.7902142,28 62.6573394,28 C64.4700641,28 67.2276067,27.7644458 69.7486322,21.8085776 L73.9776458,11.8818715 C74.3193685,11.0718137 74.450211,10.9934511 75.4483352,10.6013272 L76,10.3928267 L76,9.47844096 L73.5046115,9.60904528 L70.8256995,9.47844096 L70.8256995,10.3928267 L71.508207,10.6013272 C72.1908707,10.8107606 72.5066437,11.0718137 72.5066437,11.5421448 C72.5066437,11.7770771 72.4275442,12.0123203 72.29592,12.3777015 C71.9019853,13.3710718 69.4592778,19.2746982 68.8033453,20.5289662 L69.4591215,20.2934119 C68.3032672,17.4460822 66.5443176,12.6911519 66.2813819,11.882027 C66.2288573,11.7251463 66.202595,11.594542 66.202595,11.4633157 C66.202595,11.0455374 66.4914804,10.7058106 67.1219322,10.5753618 L67.9887447,10.3929822 L67.9887447,9.47859644 L64.3900266,9.60920076 L61.5272784,9.47859644 L61.5272784,10.3929822 L62.0001563,10.5495519 C62.6567141,10.7585188 62.8144443,10.9415204 63.2083789,11.8557506 C65.3876817,16.8194924 66.4126935,19.5359069 67.8041269,23.0891219 L68.4620916,21.0773489 Z" id="etsy"></path>
        </g>
    </g>
</svg>