<?xml version="1.0" encoding="UTF-8"?>
<svg width="100px" height="30px" viewBox="0 0 100 30" version="1.1" xmlns="http://www.w3.org/2000/svg" xmlns:xlink="http://www.w3.org/1999/xlink">
    <!-- Generator: Sketch 48.2 (47327) - http://www.bohemiancoding.com/sketch -->
    <title>brands/flipkart</title>
    <desc>Created with Sketch.</desc>
    <defs></defs>
    <g id="Symbols" stroke="none" stroke-width="1" fill="none" fill-rule="evenodd">
        <g id="brands/flipkart" fill="#FFFFFF">
            <path d="M43.9339306,15.5085364 C43.8641898,16.5886412 43.4802109,17.6805114 42.7356987,18.4669946 C41.7701348,19.3945775 40.3041304,19.2653291 39.1175148,18.9484772 C39.0943672,18.9131808 39.0593478,18.8427168 39.0477315,18.8075921 C39.2338489,17.7861859 39.3269501,16.7530143 39.5596607,15.7433736 C40.2111568,14.6633547 41.0021771,13.5713986 42.1306682,12.9727336 C42.5494962,12.7731929 43.1195499,12.820126 43.4220439,13.2075707 C43.9339306,13.8532547 43.9804813,14.7220103 43.9339306,15.5085364 Z M47.1914535,14.322843 C47.1797095,13.1487863 46.8656416,11.9161169 46.0513035,11.0355528 C45.4929087,10.4133569 44.6552101,10.0963761 43.8408719,10.1080128 C42.4912866,10.0611656 41.2232288,10.7303805 40.2343896,11.6225383 C40.0132528,11.7987198 39.8620696,12.057002 39.6178277,12.1978441 C39.6178277,11.8103135 39.6526769,11.4229546 39.6409754,11.0238303 C39.6526769,10.6597877 39.3152486,10.3428499 38.9662466,10.3428499 L37.7795459,10.3428499 C37.4073536,10.3428499 37.1048171,10.671639 37.0815418,11.0355099 C36.3486034,15.7316081 35.6041337,20.4276633 34.8711528,25.1237615 C34.7665202,25.5580964 35.1388402,26.0042826 35.580901,25.9925171 C36.2323545,25.9807946 36.8955095,26.0394931 37.5353466,25.9454552 C38.0472759,25.8045701 38.0355744,25.2058192 38.1170593,24.7714844 C38.3031341,23.7383127 38.4312122,22.705184 38.5475037,21.6602898 C40.8393775,22.1063901 43.5035288,21.8012608 45.21369,20.0518982 C46.6096983,18.5140565 47.2611518,16.3890575 47.1914535,14.322843 Z M66.7596107,16.0838423 C66.2941469,16.9643634 65.6426509,17.7626979 64.9096699,18.4435066 C64.490927,18.7957408 63.9556799,19.1597404 63.3857964,19.0423863 C62.8273165,18.9249892 62.5596716,18.3380038 62.4318063,17.833119 C62.1409712,16.518263 62.408531,15.0858812 63.1413417,13.9471638 C63.4671536,13.4187481 63.9906141,13.0196667 64.5956021,12.8552506 C65.444832,12.6439015 66.3407827,12.7495761 67.1667798,12.9843703 L67.2132879,13.0314321 C67.1086128,14.0527524 66.9107513,15.0624361 66.7596107,16.0838423 Z M70.0285797,10.5542849 C68.2951432,10.2254528 66.5268575,9.99065865 64.7701032,10.1667543 C63.1995513,10.3663809 61.6172979,11.0825718 60.6518192,12.3857052 C59.3138502,14.0997285 58.860088,16.4008659 59.1625394,18.5376303 C59.3255092,19.5589506 59.7674848,20.5921223 60.593567,21.2260408 C61.3613546,21.8248346 62.396787,21.9069353 63.3275442,21.7543277 C64.6304513,21.4960026 65.7356245,20.6509067 66.643149,19.7116012 C66.6896145,20.1107255 66.5965984,20.5099357 66.6198737,20.8973805 C66.643149,21.2612084 66.9689183,21.6016771 67.3294942,21.5781891 L68.51628,21.5781891 C68.8652395,21.5781891 69.1561171,21.2496147 69.179435,20.9090171 C69.6796628,17.7274444 70.179848,14.5575513 70.668502,11.387787 C70.7382428,10.9885768 70.4242601,10.601175 70.0286223,10.5542849 L70.0285797,10.5542849 Z M32.38146,10.4015485 C33.0096808,10.2724718 33.6611768,10.3781463 34.2893976,10.3428499 C34.6501011,10.2959598 35.0339949,10.530711 35.0921193,10.8947107 C35.1387551,11.223371 35.0455262,11.5403947 35.0106345,11.8574183 C34.5337245,14.8747038 34.0566444,17.8918605 33.5913083,20.9090601 C33.5564166,21.2496576 33.2773256,21.5900405 32.9165795,21.5782321 C32.2884013,21.5782321 31.660138,21.5900405 31.0203434,21.5665954 C30.6247482,21.5195335 30.3338706,21.0617965 30.4386308,20.6742659 C30.9389011,17.5397551 31.4159387,14.4167951 31.9161665,11.2821125 C31.9394418,10.9416438 32.0325005,10.5424335 32.38146,10.4015485 Z M75.8688541,11.892543 C76.6017499,11.152907 77.485914,10.5424335 78.4980711,10.2372612 C78.9400893,10.0376347 79.5101856,10.4133569 79.4986118,10.9064332 C79.4171695,11.5521601 79.2659437,12.1860357 79.1612261,12.8199972 C79.1145478,13.1370208 78.8470306,13.4070685 78.5328777,13.442279 C77.3927702,13.6417768 76.403931,14.3343509 75.6128256,15.1562593 C75.4151344,15.4029048 75.1242568,15.6376561 75.0893225,15.9780818 C74.8450806,17.621684 74.5891373,19.2653291 74.3331514,20.9089313 C74.2983448,21.2610796 73.9956806,21.6016771 73.6351472,21.5781891 L71.8666913,21.5781891 C71.4596074,21.6016771 71.0989464,21.1908303 71.1454544,20.7798546 C71.6573412,17.5277749 72.169313,14.2875896 72.6694982,11.035467 C72.6927735,10.7068066 72.9254841,10.3898259 73.2628273,10.3545724 C73.6932717,10.3310844 74.1236735,10.342807 74.565862,10.342807 C74.9148215,10.342807 75.2405057,10.6597877 75.2405057,11.0237874 C75.2405057,11.5285863 75.1940402,12.0451077 75.1823812,12.561672 C75.4616425,12.3857052 75.6361435,12.1038921 75.8688541,11.892543 Z M82.4419392,8.08881726 C82.523424,7.75998518 82.8374493,7.53699942 83.1633037,7.54867901 C83.6286824,7.56048742 84.1056349,7.53699942 84.5825448,7.56048742 C84.9665236,7.57216702 85.2690176,7.95961176 85.2223819,8.33529102 C85.1525985,9.00450595 84.9896713,9.67372087 84.9432058,10.342807 C85.3969255,10.342807 85.862219,10.3311274 86.3159813,10.342807 C86.7232355,10.342807 87.0606212,10.7655052 86.9907952,11.1645866 C86.9325431,11.5286721 86.8511008,11.8809063 86.7929338,12.2446913 C86.7347668,12.5500354 86.4789085,12.7965521 86.1880734,12.8434852 C85.6295935,12.8786957 85.0829002,12.8199972 84.5360367,12.8786957 C84.3033686,14.4517909 84.0474678,16.024929 83.8031409,17.5982819 C83.7681215,17.9621957 83.7449313,18.3730425 83.954324,18.6900662 C84.268477,19.0775109 84.8152128,18.93654 85.2573587,18.9836019 C85.6063608,19.0891905 85.8273699,19.4767212 85.7692029,19.8289983 C85.7109933,20.2280367 85.6993769,20.627247 85.6063608,21.0146058 C85.4667514,21.4489407 84.9664811,21.5312131 84.5825022,21.6368018 C83.5238371,21.9186579 82.3022873,21.9186579 81.3600413,21.296376 C80.4875786,20.6975822 80.3478416,19.5353338 80.4409004,18.5491382 C80.6851422,16.6472109 81.0692488,14.757092 81.2785564,12.8434422 C80.9528296,12.8551218 80.5572344,12.9021408 80.3129925,12.6086051 C80.0338164,12.3151553 80.1733832,11.8807346 80.2199338,11.516692 C80.2897597,11.1292902 80.2781008,10.6244913 80.6969714,10.4131422 C81.0342294,10.2839367 81.4182934,10.3779746 81.7788693,10.3309556 C81.9999209,9.57972591 82.2093137,8.82841032 82.4419392,8.08881726 Z M50.1115056,6.80912889 C50.1462696,6.45689469 50.4604651,6.15172238 50.8094672,6.15172238 L52.5778805,6.15172238 C53.0198987,6.13991397 53.3806874,6.62131073 53.2759272,7.04388013 C52.8687156,9.65023286 52.4499726,12.2565856 52.042761,14.8627666 C52.6593654,14.7689004 53.3574546,14.6515034 53.7878565,14.1467045 C54.5090508,13.324796 55.1025501,12.3740256 55.5445257,11.3761075 C55.6957089,10.9886198 55.7771938,10.4251223 56.2775067,10.3546583 C56.9406617,10.3311703 57.6153054,10.3428929 58.2784604,10.3546583 C58.7322227,10.3428929 59.0695658,10.8594572 58.9183401,11.2820695 C58.7438816,11.9044373 58.4530465,12.4796143 58.1505525,13.0314321 C57.4757386,14.1350249 56.7312689,15.2268092 55.7539185,16.0955648 C56.1843629,17.3986982 56.7312689,18.6666641 57.2082214,19.9463954 C57.3477457,20.3690077 57.6853016,20.8620411 57.3710635,21.2730598 C57.0103174,21.7660932 56.3355886,21.5194476 55.8353608,21.5781462 C55.3118577,21.5194476 54.555644,21.7894953 54.2647664,21.1907873 C53.7179454,19.911056 53.2643108,18.5962859 52.7057883,17.3165546 C52.3800616,17.3281913 52.0427185,17.3400426 51.7169066,17.3048321 C51.6937589,17.3518081 51.6471658,17.4456313 51.6238904,17.4926932 C51.4493043,18.6666641 51.2632294,19.8407208 51.0770269,21.0146488 C51.007201,21.2964189 50.7861493,21.5430215 50.483783,21.5665095 C49.8671786,21.5899975 49.2389579,21.5781462 48.6106946,21.5781462 C48.3430497,21.5781462 48.0988078,21.4020935 47.9824738,21.1672993 C47.8660972,20.9323763 47.9358806,20.6625004 47.9709,20.4042183 C48.6920943,15.8724932 49.4017574,11.3407681 50.1115056,6.80912889 Z M27.0182232,6.17508157 C27.6232538,6.12819144 28.239773,6.16340197 28.8448036,6.15172238 C29.2171235,6.12823438 29.5894009,6.42168415 29.6242075,6.80912889 C29.6242075,7.1143012 29.5428077,7.41960233 29.507916,7.72481758 C29.0192621,10.8712227 28.5190343,14.0176278 28.0303377,17.1639899 C27.9605544,17.6687888 27.832604,18.2087983 27.9838722,18.7254056 C28.1583733,19.241927 28.9377346,19.0188553 29.1239371,19.5588648 C29.2402712,19.9932855 29.1122357,20.4511084 29.077344,20.8972946 C29.0424948,21.48428 28.3793398,21.6133567 27.9257052,21.742691 C26.936866,21.9304663 25.7384639,21.7895812 25.0288008,20.9676727 C24.5169141,20.3690507 24.4819798,19.5236542 24.5867826,18.7723816 C25.2033444,14.7807518 25.8199062,10.789122 26.448212,6.78564089 C26.4831463,6.49210523 26.7157718,6.22210052 27.0182232,6.17508157 Z M15.198278,6.80912889 C15.2331271,6.45689469 15.54728,6.13991397 15.9078985,6.15172238 C18.5954102,6.15172238 21.2711778,6.16340197 23.946988,6.15172238 C24.2378231,6.12823438 24.551976,6.25731106 24.6915002,6.51559323 C24.889234,6.86782744 24.7147755,7.25522923 24.6915002,7.61922891 C24.610143,8.11221938 24.6333332,8.76975471 24.0633646,8.95752994 C22.1088338,9.01622848 20.1543031,8.95752994 18.1997724,8.98101794 C18.0136549,10.2254099 17.8391539,11.4581222 17.6529514,12.6908346 C17.6529514,12.7378106 17.6646529,12.843571 17.6646529,12.8903753 C19.0955954,12.8786957 20.5265379,12.8903753 21.9574805,12.8786957 C22.3530757,12.8552077 22.7718186,13.1958052 22.7369269,13.6183317 C22.7020778,14.0527524 22.6089765,14.4753648 22.5508521,14.9097855 C22.5042163,15.2032353 22.2715908,15.473283 21.9690968,15.5319815 C20.3752271,15.567192 18.7580821,15.496771 17.1643825,15.567192 C16.9083541,17.3399568 16.6058601,19.1126356 16.3382578,20.8854862 C16.3034512,21.2377204 16.0241474,21.5429356 15.6751453,21.5545723 C15.0120754,21.5663807 14.3488779,21.5663807 13.685808,21.5545723 C13.2553636,21.5663807 12.906319,21.0848981 13.0226104,20.6740512 C13.7324863,16.0486317 14.4653821,11.434806 15.198278,6.80912889 Z M33.6495604,6.06949289 C34.2662499,5.97558381 34.9758704,5.91688527 35.4993735,6.30428707 C35.8251003,6.55076083 35.9414769,6.99686118 35.918159,7.39611433 C35.9414769,8.05352084 35.6389829,8.7579463 35.0573979,9.09845797 C34.545426,9.38022815 33.9289068,9.40358734 33.3587679,9.34493173 C32.9748742,9.2980416 32.5909804,9.08677837 32.393204,8.73454417 C31.9510156,7.71313799 32.4978366,6.26907653 33.6495604,6.06949289 Z" id="flipkart"></path>
        </g>
    </g>
</svg>