<?xml version="1.0" encoding="UTF-8"?>
<svg width="20px" height="20px" viewBox="0 0 20 20" version="1.1" xmlns="http://www.w3.org/2000/svg" xmlns:xlink="http://www.w3.org/1999/xlink">
    <!-- Generator: Sketch 48.2 (47327) - http://www.bohemiancoding.com/sketch -->
    <title>happy-face-ico</title>
    <desc>Created with Sketch.</desc>
    <defs></defs>
    <g id="invoice/waiting" stroke="none" stroke-width="1" fill="none" fill-rule="evenodd" transform="translate(-10.000000, -15.000000)">
        <g id="item" fill="#FFFFFF" fill-rule="nonzero">
            <path d="M19.99,15 C25.52,15 30,19.48 30,25 C30,30.52 25.52,35 19.99,35 C14.47,35 10,30.52 10,25 C10,19.48 14.47,15 19.99,15 Z M23.5,24 C24.33,24 25,23.33 25,22.5 C25,21.67 24.33,21 23.5,21 C22.67,21 22,21.67 22,22.5 C22,23.33 22.67,24 23.5,24 Z M16.5,24 C17.33,24 18,23.33 18,22.5 C18,21.67 17.33,21 16.5,21 C15.67,21 15,21.67 15,22.5 C15,23.33 15.67,24 16.5,24 Z M20,30.5 C22.33,30.5 24.31,29.04 25.11,27 L14.89,27 C15.69,29.04 17.67,30.5 20,30.5 Z" id="happy-face-ico"></path>
        </g>
    </g>
</svg>