<?xml version="1.0" encoding="UTF-8"?>
<svg width="100px" height="30px" viewBox="0 0 100 30" version="1.1" xmlns="http://www.w3.org/2000/svg" xmlns:xlink="http://www.w3.org/1999/xlink">
    <!-- Generator: Sketch 48.2 (47327) - http://www.bohemiancoding.com/sketch -->
    <title>brands/itunes</title>
    <desc>Created with Sketch.</desc>
    <defs></defs>
    <g id="Symbols" stroke="none" stroke-width="1" fill="none" fill-rule="evenodd">
        <g id="brands/itunes" fill="#FFFFFF">
            <path d="M43.0019531,21 L43.0019531,11.7539062 L44.9003906,11.7539062 L44.9003906,21 L43.0019531,21 Z M43.9511719,10.4003906 C43.3447266,10.4003906 42.8525391,9.91699219 42.8525391,9.31933594 C42.8525391,8.71289062 43.3447266,8.22949219 43.9511719,8.22949219 C44.5664062,8.22949219 45.0585938,8.71289062 45.0585938,9.31933594 C45.0585938,9.91699219 44.5664062,10.4003906 43.9511719,10.4003906 Z M52.1865234,21 L50.2177734,21 L50.2177734,10.0136719 L46.3330078,10.0136719 L46.3330078,8.31738281 L56.0625,8.31738281 L56.0625,10.0136719 L52.1865234,10.0136719 L52.1865234,21 Z M65.3613281,11.7539062 L65.3613281,21 L63.5419922,21 L63.5419922,19.4355469 L63.4980469,19.4355469 C62.9882812,20.5429687 62.0478516,21.1669922 60.6328125,21.1669922 C58.6201172,21.1669922 57.3896484,19.8574219 57.3896484,17.7392578 L57.3896484,11.7539062 L59.2880859,11.7539062 L59.2880859,17.3701172 C59.2880859,18.7763672 59.9560547,19.5322266 61.265625,19.5322266 C62.6367188,19.5322266 63.4628906,18.5830078 63.4628906,17.1416016 L63.4628906,11.7539062 L65.3613281,11.7539062 Z M67.2333984,21 L67.2333984,11.7539062 L69.0439453,11.7539062 L69.0439453,13.3007812 L69.0878906,13.3007812 C69.5888672,12.2460938 70.5732422,11.5957031 71.9970703,11.5957031 C74.0361328,11.5957031 75.2050781,12.8964844 75.2050781,15.0146484 L75.2050781,21 L73.2978516,21 L73.2978516,15.3837891 C73.2978516,13.9951172 72.6474609,13.2304688 71.3291016,13.2304688 C69.9931641,13.2304688 69.1318359,14.1796875 69.1318359,15.6123047 L69.1318359,21 L67.2333984,21 Z M80.9003906,13.1162109 C79.5732422,13.1162109 78.6416016,14.1269531 78.5449219,15.5244141 L83.1679688,15.5244141 C83.1240234,14.109375 82.2275391,13.1162109 80.9003906,13.1162109 Z M83.1591797,18.2841797 L84.9609375,18.2841797 C84.6972656,19.9716797 83.0976562,21.1757812 80.9794922,21.1757812 C78.2636719,21.1757812 76.6201172,19.3388672 76.6201172,16.4208984 C76.6201172,13.5205078 78.2900391,11.5869141 80.9003906,11.5869141 C83.4667969,11.5869141 85.0664062,13.3974609 85.0664062,16.2011719 L85.0664062,16.8515625 L78.5361328,16.8515625 L78.5361328,16.9658203 C78.5361328,18.5742188 79.5029297,19.6376953 81.0234375,19.6376953 C82.1044922,19.6376953 82.9042969,19.0927734 83.1591797,18.2841797 Z M86.3671875,14.3730469 C86.3671875,12.7207031 87.8261719,11.5869141 89.9882812,11.5869141 C92.0449219,11.5869141 93.4863281,12.7382812 93.5478516,14.3818359 L91.7636719,14.3818359 C91.6757812,13.546875 90.9990234,13.0283203 89.9355469,13.0283203 C88.9072266,13.0283203 88.2216797,13.5292969 88.2216797,14.2587891 C88.2216797,14.8300781 88.6787109,15.2167969 89.6367188,15.4541016 L91.1923828,15.8144531 C93.0556641,16.2626953 93.7587891,16.9658203 93.7587891,18.328125 C93.7587891,20.015625 92.1855469,21.1757812 89.9179688,21.1757812 C87.7294922,21.1757812 86.2792969,20.0419922 86.1298828,18.3457031 L88.0107422,18.3457031 C88.1601562,19.2333984 88.8457031,19.7255859 90.0058594,19.7255859 C91.1484375,19.7255859 91.8515625,19.2509766 91.8515625,18.5039062 C91.8515625,17.9150391 91.5,17.5898438 90.5332031,17.34375 L88.8808594,16.9394531 C87.2109375,16.5351562 86.3671875,15.6650391 86.3671875,14.3730469 Z M20.9999709,0 C29.2844698,0 36,6.71553023 36,14.9999709 C36,23.284528 29.2844698,30 20.9999709,30 C12.7155302,30 6,23.2844698 6,14.9999709 C6,6.71553023 12.7155302,0 20.9999709,0 Z M20.9999709,1.65556131 C13.630922,1.65556131 7.66801483,7.63098016 7.66801483,15.0000291 C7.66801483,22.3691362 13.630922,28.3445551 20.9999709,28.3445551 C28.369078,28.3445551 34.3444969,22.3691362 34.3444969,15.0000291 C34.3444969,7.63098016 28.369078,1.65556131 20.9999709,1.65556131 Z M27.2506474,4.99444247 L27.2510548,4.99444247 L27.2510548,9.22479763 L27.2436641,19.6876728 C27.2440715,19.7001263 27.2436641,19.7117651 27.2436641,19.7241604 C27.2436641,21.0405088 25.9459378,22.1003963 24.4018762,22.1003963 C22.8578146,22.1003963 21.6132194,21.0405088 21.6132194,19.7241604 C21.6132194,18.4082193 22.8578146,17.3358784 24.4018762,17.3358784 C25.0672083,17.3358784 25.6798166,17.5383935 26.1597425,17.8692846 L26.1597425,9.51611683 L17.9400136,11.7348797 L18.0086825,20.8803007 L18.037023,21.5553512 C18.0920746,22.8705358 16.7800325,23.9315871 15.23632,23.9315871 C13.6926076,23.9315871 12.4480706,22.8716415 12.4480706,21.555293 C12.4480706,20.239352 13.6922585,19.167011 15.23632,19.167011 C15.8357183,19.167011 16.3936243,19.329605 16.8487014,19.603466 L16.8487014,12.0382451 L16.8366552,12.0382451 L16.8366552,7.80719162 L16.8487014,7.80719162 L27.2506474,4.99444247 Z" id="iTunes"></path>
        </g>
    </g>
</svg>