<?xml version="1.0" encoding="UTF-8"?>
<svg width="31px" height="24px" viewBox="0 0 31 24" version="1.1" xmlns="http://www.w3.org/2000/svg" xmlns:xlink="http://www.w3.org/1999/xlink">
    <!-- Generator: Sketch 48.2 (47327) - http://www.bohemiancoding.com/sketch -->
    <title>logotype</title>
    <desc>Created with Sketch.</desc>
    <defs></defs>
    <g id="Desktop" stroke="none" stroke-width="1" fill="none" fill-rule="evenodd" transform="translate(-130.000000, -38.000000)">
        <g id="header" transform="translate(0.000000, 20.000000)" fill="#FFFFFF">
            <g id="logo" transform="translate(130.000000, 18.000000)">
                <path d="M0,0 L3,0 L3,24 L0,24 L0,0 Z M8,0 L11,0 L11,24 L8,24 L8,0 Z M13,0 L15,0 L15,24 L13,24 L13,0 Z M17,0 L20,0 L20,24 L17,24 L17,0 Z M28,0 L31,0 L31,24 L28,24 L28,0 Z M5,0 L6,0 L6,24 L5,24 L5,0 Z M22,0 L24,0 L24,24 L22,24 L22,0 Z M26,0 L27,0 L27,24 L26,24 L26,0 Z" id="logotype"></path>
            </g>
        </g>
    </g>
</svg>