<?xml version="1.0" encoding="UTF-8"?>
<svg width="50px" height="50px" viewBox="0 0 50 50" version="1.1" xmlns="http://www.w3.org/2000/svg" xmlns:xlink="http://www.w3.org/1999/xlink">
    <!-- Generator: Sketch 48.2 (47327) - http://www.bohemiancoding.com/sketch -->
    <title>ill/payment</title>
    <desc>Created with Sketch.</desc>
    <defs></defs>
    <g id="Symbols" stroke="none" stroke-width="1" fill="none" fill-rule="evenodd">
        <g id="ill/payment">
            <circle id="Oval" fill="#FFFFFF" cx="25.5" cy="26.5" r="23.5"></circle>
            <path d="M19.5,33.4507659 L21.6520468,30.249453 C22.6345029,31.1641138 24.2251462,32.0306346 25.6520468,32.0306346 C26.494152,32.0306346 27.4064327,31.6936543 27.4064327,30.6586433 C27.4064327,28.7330416 19.8040936,28.5645514 19.8040936,23.3894967 C19.8040936,20.7887195 21.5457847,18.9048178 24,18.3213257 L24,16.5 C24,15.6715729 24.6715729,15 25.5,15 C26.3284271,15 27,15.6715729 27,16.5 L27,18.2117828 C28.4822312,18.405991 29.9328392,19.0032806 31.1023392,20.0678337 L29.371345,23.5098468 C28.4356725,22.6914661 26.9853801,21.9934354 25.6754386,21.9934354 C24.8333333,21.9934354 23.8976608,22.3785558 23.8976608,23.3413567 C23.8976608,25.3873085 31.5,25.2428884 31.5,30.5623632 C31.5,33.0626737 29.8825921,35.2393699 27,35.7786216 L27,37.5 C27,38.3284271 26.3284271,39 25.5,39 C24.6715729,39 24,38.3284271 24,37.5 L24,35.7631913 C22.3706733,35.4594468 20.6520589,34.6818215 19.5,33.4507659 Z" id="Combined-Shape" fill="#A9C4F9"></path>
        </g>
    </g>
</svg>