<?xml version="1.0" encoding="UTF-8"?>
<svg width="100px" height="30px" viewBox="0 0 100 30" version="1.1" xmlns="http://www.w3.org/2000/svg" xmlns:xlink="http://www.w3.org/1999/xlink">
    <!-- Generator: Sketch 48.2 (47327) - http://www.bohemiancoding.com/sketch -->
    <title>brands/rakuten</title>
    <desc>Created with Sketch.</desc>
    <defs></defs>
    <g id="Symbols" stroke="none" stroke-width="1" fill="none" fill-rule="evenodd">
        <g id="brands/rakuten" fill="#FFFFFF" fill-rule="nonzero">
            <path d="M62.2361356,14.4998011 C62.2361356,21.1594138 56.8097642,26.5588633 50.1093994,26.5588633 C43.4170346,26.5588633 37.9878632,21.1594138 37.9878632,14.4998011 C37.9878632,7.84297284 43.4170346,2.44431892 50.1093994,2.44431892 C56.8093642,2.44431892 62.2361356,7.84297284 62.2361356,14.4998011 Z M52.4921869,16.1879744 C53.8373798,15.436968 54.7005753,13.9882576 54.7005753,12.4174291 C54.7005753,9.99893395 52.7285856,8.03112221 50.3053984,8.03112221 L46.1222204,8.03112221 L46.1222204,20.9724578 L48.5966074,20.9724578 L48.5966074,16.7886203 L49.8694007,16.7886203 C49.9778001,16.9357985 52.9009847,20.9724578 52.9009847,20.9724578 L55.9389687,20.9724578 C55.9385687,20.9724578 52.7125857,16.4966507 52.4921869,16.1879744 Z M48.5966074,10.4917819 L50.3057984,10.4917819 C51.3629928,10.4917819 52.2237883,11.3569508 52.2237883,12.4174291 C52.2229068,13.4705946 51.3648387,14.3242582 50.3057984,14.325574 L48.5966074,14.325574 L48.5966074,10.4917819 Z M87.9992,5.44754889 L76.5168604,5.44754889 L76.5168604,9.14450508 C76.5168604,10.2069723 76.5716601,10.8223361 76.6380598,11.3267196 L87.1404045,11.3267196 L87.1404045,13.8721062 L77.2108568,13.8721062 C78.1720517,17.4656399 81.6904332,21.9024646 87.5920021,23.8141896 L88,23.9470477 L88,26.9988067 L87.1772043,26.6515458 C80.9052373,23.9693233 77.0332577,20.6076946 75.4084663,16.4166972 C74.0560734,20.5301278 71.2296883,23.7704339 63.6929279,26.6463746 L62.8913322,26.9522665 L62.8913322,23.99677 L63.2837301,23.8575475 C70.4204925,21.3396076 72.6856806,16.7754936 73.4012768,13.8725039 L63.7293277,13.8725039 L63.7293277,11.3267196 L73.7904748,11.3267196 C73.8352746,10.6298111 73.8540745,10.1123009 73.8540745,9.14450508 L73.8540745,5.44754889 L62.9509318,5.44754889 L62.9509318,2.92563127 L87.9992,2.92563127 L87.9992,5.44754889 Z M12.5927969,2.81465099 L17.69237,5.5692692 L17.69237,8.32468297 L12.5927969,5.5692692 L12.5927969,2.81465099 Z M36.4962711,16.2643479 L36.4962711,16.2647457 L36.4990711,16.2647457 L36.4990711,18.7317698 L27.8583165,18.7317698 C29.6859069,20.4605165 32.511892,22.4860061 36.6502703,23.8551608 L37.0554681,23.98603 L37.0554681,26.5771611 L36.2738722,26.3106493 C31.7954958,24.7803943 28.2775143,22.7258668 25.7851274,20.1959936 L25.7851274,27 L23.2235409,27 L23.2235409,20.195198 C20.7623539,22.6825089 17.2635723,24.7525498 12.7911958,26.354405 L12,26.6396124 L12,24.0409235 L12.3975979,23.9028942 C16.5243762,22.4828239 19.3327614,20.4545498 21.1499518,18.731372 L12.5995968,18.731372 L12.5995968,13.5670098 L17.69277,10.8143805 L17.69277,13.5693965 L12.7019963,16.2655412 L23.2235409,16.2655412 L23.2235409,15.3148499 L19.1371624,15.3148499 L19.1371624,12.7877611 L19.1351624,12.7877611 L19.1351624,10.034734 L19.1371624,10.0327452 L19.1371624,9.1047272 L19.1351624,9.1047272 L19.1351624,6.3481201 L19.1371624,6.35010899 L19.1371624,3.91530494 L22.7871432,3.91530494 L23.3767401,2 L26.1031258,2 L25.5119289,3.91530494 L29.9431056,3.91530494 L29.9431056,15.3144521 L25.7851274,15.3144521 L25.7851274,16.2651434 L36.3906716,16.2651434 L31.386298,13.5602476 L31.386298,10.8060271 L36.4962711,13.5686009 L36.4962711,16.2643479 Z M21.6695491,6.22918424 L21.6695491,8.31672739 L27.387119,8.31672739 L27.387119,6.22918424 L21.6695491,6.22918424 Z M21.6695491,12.9763083 L27.387119,12.9763083 L27.387119,10.60316 L21.6695491,10.60316 L21.6695491,12.9763083 Z M36.4962711,5.5692692 L31.386298,8.33064965 L31.386298,5.5748381 L35.6258757,3.28562109 L36.4962711,2.81465099 L36.4962711,5.5692692 Z" id="rakuten"></path>
        </g>
    </g>
</svg>