<?xml version="1.0" encoding="UTF-8"?>
<svg width="100px" height="30px" viewBox="0 0 100 30" version="1.1" xmlns="http://www.w3.org/2000/svg" xmlns:xlink="http://www.w3.org/1999/xlink">
    <!-- Generator: Sketch 48.2 (47327) - http://www.bohemiancoding.com/sketch -->
    <title>brands/tmall</title>
    <desc>Created with Sketch.</desc>
    <defs></defs>
    <g id="Symbols" stroke="none" stroke-width="1" fill="none" fill-rule="evenodd">
        <g id="brands/tmall" fill="#FFFFFF">
            <path d="M44.2199622,6.52858394 C44.7998435,6.08321844 45.6576878,5.78165175 46.3251295,6.22249787 C46.9983534,6.53597931 47.2023857,7.31783408 47.1829737,7.99902966 C47.1924732,12.9974769 47.1871039,17.9959241 47.1850388,22.9943713 C46.2396341,22.9964256 45.2942294,22.9902628 44.3488247,22.9984798 C44.2823284,18.7449105 44.3488247,14.4876436 44.31537,10.2340743 C41.0025299,11.8364041 36.9251882,11.842156 33.611935,10.2340743 C33.6082178,14.4876436 33.6160652,18.7412129 33.6082178,22.9943713 L30.7757209,22.9943713 C30.777786,17.9322418 30.7641563,12.8713448 30.7815032,7.81126948 C30.7001381,6.86466234 31.5051157,5.93038083 32.4856272,6.00967561 C33.5888058,6.12964491 34.2930063,7.10254669 35.2619532,7.5425711 C36.7616319,8.44398432 38.5826408,8.48301543 40.2789174,8.33551891 C41.7534018,8.18884411 43.0725903,7.41643899 44.2199622,6.52858394 Z M79.0435665,6.0346966 C79.9815369,6.03099892 80.9190942,6.03880514 81.8570645,6.02524697 C82.0040999,10.0060093 81.846739,13.999919 81.9342994,17.9864334 C81.9694062,18.8262185 82.3799489,19.7666628 83.2629874,20.0045472 C84.4768557,20.3356953 85.7568073,20.1265708 87,20.2231214 C86.9979349,21.1463099 87.0024781,22.0694983 86.9962828,22.9906325 C85.8133911,22.9943302 84.6309125,22.9963845 83.4496729,22.9943302 C82.1152025,22.9943302 80.7419082,22.4331039 79.9228879,21.3611864 C79.2884879,20.5444091 79.0204374,19.4996079 79.0394363,18.4798688 C79.0415014,14.3306563 79.0340671,10.1818548 79.0435665,6.0346966 Z M12.0030977,6.0038004 C17.5611191,5.99804844 23.1187275,6.00010271 28.676749,6.00174613 C28.6788141,6.89206629 28.6825313,7.78238646 28.6746839,8.67270662 C26.3811791,8.67270662 24.0876744,8.68010199 21.7941697,8.6702415 C21.7590629,13.4464168 21.8288634,18.2242355 21.7590629,23 C20.8115931,22.9905504 19.8620582,22.994248 18.9145884,22.9963023 C18.9050889,18.2242355 18.9145884,13.4521688 18.9112842,8.68215626 C16.607454,8.66284613 14.3044498,8.68215626 12.0030977,8.67270662 C11.9989674,7.78238646 11.9989674,6.89412056 12.0030977,6.0038004 Z M69.215777,6.03670979 C70.1669639,6.03095783 71.1181509,6.0330121 72.0718161,6.03465552 C72.090815,9.9184564 72.0635556,13.8043115 72.0854458,17.6881124 C72.1085749,18.580076 72.408015,19.6795208 73.3711796,19.9757463 C74.5982645,20.3549644 75.9096057,20.1187235 77.1726234,20.2230803 C77.1602328,21.1483231 77.1701453,22.0711007 77.1622979,22.9963434 C75.9463646,22.988948 74.7308442,23.0041496 73.5144979,22.9905914 C72.1354213,22.9753899 70.7447801,22.3192564 69.9608666,21.173796 C69.4177441,20.3820807 69.2066905,19.4124658 69.2116467,18.4662695 C69.2132988,14.3232199 69.2079296,10.1797594 69.215777,6.03670979 Z M54.9621387,8.71469588 C55.544085,7.27177737 56.8992064,6.0018283 58.5393121,6.02689038 C60.1579408,6.01168879 61.5002586,7.25616492 62.0859221,8.67977331 C64.0006867,13.4485533 65.908843,18.2181549 67.8128691,22.9906325 C66.760905,23.0000822 65.7081149,22.9889891 64.6561508,22.9984388 C63.8094581,20.8755572 62.9920898,18.7411718 62.1677002,16.610484 C59.4421757,16.6297942 56.6893918,17.6150215 54.6858277,19.4766001 C53.6119735,20.4593623 52.788823,21.6865826 52.1647485,22.9922759 C51.1900193,22.9943302 50.2177683,22.9963845 49.2451042,22.9906325 C51.1416959,18.2304805 53.0539824,13.4732045 54.9621387,8.71469588 Z M57.3027278,10.2632038 C56.4791642,12.1925732 55.721271,14.149059 54.8849038,16.0706221 C56.7191293,14.7624637 58.9874398,14.2649197 61.2008184,14.073051 C60.7241924,12.8154276 60.2550007,11.5541064 59.7709403,10.2997698 C59.5821898,9.79483049 59.1191934,9.33426339 58.5417903,9.37699219 C57.9714085,9.33631766 57.5084121,9.77387695 57.3027278,10.2632038 Z" id="tmall"></path>
        </g>
    </g>
</svg>