<?xml version="1.0" encoding="UTF-8"?>
<svg width="37px" height="30px" viewBox="0 0 37 30" version="1.1" xmlns="http://www.w3.org/2000/svg" xmlns:xlink="http://www.w3.org/1999/xlink">
    <!-- Generator: Sketch 48.2 (47327) - http://www.bohemiancoding.com/sketch -->
    <title>ups</title>
    <desc>Created with Sketch.</desc>
    <defs></defs>
    <g id="invoice/default" stroke="none" stroke-width="1" fill="none" fill-rule="evenodd" transform="translate(-10.000000, -10.000000)">
        <g id="item">
            <g id="upc-codes" transform="translate(10.000000, 6.000000)">
                <g id="ups" transform="translate(0.000000, 4.000000)">
                    <rect id="substrate" fill="#FFFFFF" x="0" y="0" width="37" height="30" rx="4"></rect>
                    <path d="M6,6 L9,6 L9,24 L6,24 L6,6 Z M19,6 L22,6 L22,24 L19,24 L19,6 Z M28,6 L31,6 L31,24 L28,24 L28,6 Z M11,6 L13,6 L13,24 L11,24 L11,6 Z M15,6 L17,6 L17,24 L15,24 L15,6 Z M24,6 L26,6 L26,24 L24,24 L24,6 Z" id="stripes" fill="#5970A0"></path>
                </g>
            </g>
        </g>
    </g>
</svg>